<svg xmlns="http://www.w3.org/2000/svg" width="500" height="149.963" viewBox="0 0 500 149.963"><g fill="#1ED760"><path d="M74.981 0C33.571 0 0 33.57 0 74.98c0 41.415 33.571 74.983 74.981 74.983 41.412 0 74.982-33.568 74.982-74.983 0-41.41-33.57-74.98-74.982-74.98m34.388 108.149a4.67 4.67 0 0 1-6.426 1.556c-17.607-10.761-39.77-13.191-65.87-7.23a4.67 4.67 0 0 1-5.595-3.513 4.669 4.669 0 0 1 3.515-5.597c28.562-6.528 53.062-3.72 72.826 8.357a4.676 4.676 0 0 1 1.55 6.427m9.175-20.417c-1.696 2.752-5.293 3.615-8.042 1.926-20.149-12.386-50.877-15.975-74.716-8.738a5.856 5.856 0 0 1-7.296-3.895 5.855 5.855 0 0 1 3.898-7.291c27.233-8.264 61.088-4.262 84.232 9.961 2.748 1.692 3.613 5.292 1.924 8.037m.791-21.26c-24.169-14.354-64.037-15.673-87.11-8.671a7.01 7.01 0 0 1-8.746-4.672 7.015 7.015 0 0 1 4.673-8.75c26.487-8.04 70.516-6.487 98.341 10.03a7.014 7.014 0 0 1 2.451 9.61c-1.977 3.334-6.284 4.432-9.609 2.453M203.999 69.221c-12.946-3.088-15.251-5.254-15.251-9.807 0-4.302 4.05-7.196 10.072-7.196 5.838 0 11.625 2.198 17.695 6.724a.845.845 0 0 0 .64.156.83.83 0 0 0 .56-.346l6.321-8.911a.849.849 0 0 0-.161-1.153c-7.223-5.796-15.356-8.613-24.864-8.613-13.979 0-23.743 8.388-23.743 20.391 0 12.871 8.423 17.428 22.978 20.947 12.388 2.854 14.479 5.243 14.479 9.518 0 4.735-4.227 7.68-11.031 7.68-7.557 0-13.721-2.546-20.616-8.517a.894.894 0 0 0-.622-.203.847.847 0 0 0-.582.299l-7.088 8.436a.841.841 0 0 0 .084 1.176c8.022 7.162 17.89 10.945 28.537 10.945 15.063 0 24.796-8.23 24.796-20.969.001-10.767-6.431-16.721-22.204-20.557M260.284 56.453c-6.529 0-11.885 2.572-16.301 7.841v-5.931a.85.85 0 0 0-.848-.85h-11.591a.849.849 0 0 0-.847.85v65.902c0 .468.378.849.847.849h11.591a.849.849 0 0 0 .848-.849v-20.803c4.417 4.958 9.773 7.379 16.301 7.379 12.131 0 24.411-9.339 24.411-27.19 0-17.857-12.28-27.198-24.411-27.198m10.933 27.197c0 9.091-5.6 15.435-13.617 15.435-7.928 0-13.907-6.632-13.907-15.435 0-8.802 5.979-15.435 13.907-15.435 7.889 0 13.617 6.49 13.617 15.435M316.175 56.453c-15.624 0-27.863 12.03-27.863 27.392 0 15.193 12.155 27.098 27.672 27.098 15.679 0 27.956-11.991 27.956-27.292 0-15.253-12.192-27.198-27.765-27.198m0 42.726c-8.311 0-14.575-6.677-14.575-15.529 0-8.891 6.049-15.341 14.384-15.341 8.362 0 14.67 6.676 14.67 15.536 0 8.887-6.089 15.334-14.479 15.334M377.303 57.513h-12.757V44.471a.848.848 0 0 0-.846-.85h-11.59a.851.851 0 0 0-.851.85v13.042h-5.573a.848.848 0 0 0-.845.85v9.962c0 .468.378.85.845.85h5.573v25.778c0 10.418 5.185 15.701 15.411 15.701 4.158 0 7.607-.859 10.859-2.702a.846.846 0 0 0 .429-.735V97.73a.849.849 0 0 0-1.228-.762c-2.233 1.124-4.392 1.643-6.805 1.643-3.719 0-5.379-1.688-5.379-5.474V69.174h12.757a.847.847 0 0 0 .845-.85v-9.962a.847.847 0 0 0-.845-.849M421.748 57.563v-1.602c0-4.713 1.806-6.814 5.858-6.814 2.417 0 4.358.479 6.532 1.205a.847.847 0 0 0 1.116-.806v-9.77a.847.847 0 0 0-.6-.813c-2.297-.683-5.235-1.385-9.636-1.385-10.708 0-16.366 6.031-16.366 17.431v2.453h-5.568a.852.852 0 0 0-.851.849v10.014c0 .467.383.85.851.85h5.568v39.762c0 .469.378.85.845.85h11.592a.851.851 0 0 0 .851-.85V69.175h10.823l16.579 39.751c-1.882 4.178-3.733 5.008-6.259 5.008-2.043 0-4.194-.609-6.393-1.812a.866.866 0 0 0-.676-.063.852.852 0 0 0-.501.457l-3.929 8.619a.844.844 0 0 0 .364 1.098c4.102 2.221 7.805 3.17 12.381 3.17 8.559 0 13.29-3.987 17.462-14.714l20.111-51.969a.848.848 0 0 0-.787-1.157h-12.067a.854.854 0 0 0-.804.569l-12.362 35.311-13.541-35.333a.844.844 0 0 0-.791-.546h-19.802zM395.982 57.513h-11.593a.852.852 0 0 0-.85.85v50.574c0 .469.383.85.85.85h11.593c.467 0 .85-.381.85-.85V58.363a.852.852 0 0 0-.85-.85M390.245 34.485c-4.593 0-8.319 3.718-8.319 8.31a8.319 8.319 0 0 0 8.319 8.317 8.314 8.314 0 0 0 8.313-8.317 8.31 8.31 0 0 0-8.313-8.31M491.799 73.773c-4.588 0-8.157-3.685-8.157-8.159s3.616-8.201 8.199-8.201a8.125 8.125 0 0 1 8.158 8.154c.001 4.476-3.613 8.206-8.2 8.206m.042-15.548c-4.178 0-7.34 3.322-7.34 7.39 0 4.065 3.139 7.343 7.298 7.343 4.178 0 7.344-3.32 7.344-7.389 0-4.067-3.143-7.344-7.302-7.344m1.809 8.182l2.309 3.23h-1.945l-2.078-2.963h-1.784v2.963h-1.629v-8.562h3.817c1.99 0 3.299 1.018 3.299 2.731-.001 1.404-.812 2.262-1.989 2.601m-1.376-3.863h-2.123v2.708h2.123c1.061 0 1.693-.519 1.693-1.354 0-.882-.633-1.354-1.693-1.354"/></g></svg>